<svg width="25" height="25" viewBox="0 0 25 25" fill="none" xmlns="http://www.w3.org/2000/svg">
<g id="Google Logo">
<rect width="24" height="24" transform="translate(0.5 0.431152)" fill="white"/>
<g id="logo googleg 48dp">
<path id="Shape" fill-rule="evenodd" clip-rule="evenodd" d="M23.54 12.6926C23.54 11.8771 23.4668 11.0931 23.3309 10.3403H12.5V14.7887H18.6891C18.4225 16.2262 17.6123 17.4442 16.3943 18.2596V21.1451H20.1109C22.2855 19.1431 23.54 16.1949 23.54 12.6926Z" fill="#4285F4"/>
<path id="Shape_2" fill-rule="evenodd" clip-rule="evenodd" d="M12.5 23.9312C15.605 23.9312 18.2081 22.9014 20.1109 21.1451L16.3943 18.2596C15.3645 18.9496 14.0472 19.3573 12.5 19.3573C9.50474 19.3573 6.96951 17.3344 6.06519 14.6162H2.22314V17.5958C4.11542 21.3542 8.00451 23.9312 12.5 23.9312Z" fill="#34A853"/>
<path id="Shape_3" fill-rule="evenodd" clip-rule="evenodd" d="M6.06523 14.6161C5.83523 13.9261 5.70455 13.1891 5.70455 12.4311C5.70455 11.6732 5.83523 10.9361 6.06523 10.2461V7.2666H2.22318C1.44432 8.8191 1 10.5755 1 12.4311C1 14.2868 1.44432 16.0432 2.22318 17.5957L6.06523 14.6161Z" fill="#FBBC05"/>
<path id="Shape_4" fill-rule="evenodd" clip-rule="evenodd" d="M12.5 5.50502C14.1884 5.50502 15.7043 6.08524 16.8961 7.22479L20.1945 3.92638C18.2029 2.0707 15.5997 0.931152 12.5 0.931152C8.00451 0.931152 4.11542 3.5082 2.22314 7.26661L6.06519 10.2462C6.96951 7.52797 9.50474 5.50502 12.5 5.50502Z" fill="#EA4335"/>
</g>
</g>
</svg>
