<svg width="24" height="25" viewBox="0 0 24 25" fill="none" xmlns="http://www.w3.org/2000/svg">
<g id="Interface essential/Minus-circle">
<g id="Icon">
<path fill-rule="evenodd" clip-rule="evenodd" d="M11.44 2.23999H12.56C17.7736 2.23999 22 6.46642 22 11.68V12.8C22 18.0136 17.7736 22.24 12.56 22.24H11.44C6.22643 22.24 2 18.0136 2 12.8V11.68C2 6.46642 6.22643 2.23999 11.44 2.23999ZM12.56 20.74C16.9315 20.7073 20.4673 17.1715 20.5 12.8V11.68C20.4673 7.30845 16.9315 3.77266 12.56 3.73999H11.44C7.06846 3.77266 3.53266 7.30845 3.5 11.68V12.8C3.53266 17.1715 7.06846 20.7073 11.44 20.74H12.56Z" fill="#EB5757"/>
<path d="M16 11.49H8C7.58579 11.49 7.25 11.8258 7.25 12.24C7.25 12.6542 7.58579 12.99 8 12.99H16C16.4142 12.99 16.75 12.6542 16.75 12.24C16.75 11.8258 16.4142 11.49 16 11.49Z" fill="#EB5757"/>
</g>
</g>
</svg>
