<svg width="24" height="25" viewBox="0 0 24 25" fill="none" xmlns="http://www.w3.org/2000/svg">
<g id="Music and sound Player/Music-note-1">
<path id="Icon" fill-rule="evenodd" clip-rule="evenodd" d="M19.6404 7.12009C19.6263 6.16909 19.1337 5.28927 18.3304 4.78009C17.2662 4.07718 15.9255 3.93901 14.7404 4.41009L10.1904 6.24009C9.03495 6.64731 8.24322 7.71615 8.19037 8.94009V16.2401C7.79942 16.0316 7.36345 15.9217 6.92037 15.9201C5.3795 15.9201 4.13037 17.1692 4.13037 18.7101C4.13037 20.251 5.3795 21.5001 6.92037 21.5001C8.46124 21.5001 9.71037 20.251 9.71037 18.7101V8.92009C9.76576 8.31123 10.1851 7.79691 10.7704 7.62009L15.3104 5.81009C16.0345 5.51991 16.8542 5.59816 17.5104 6.02009C17.8952 6.25709 18.1384 6.66865 18.1604 7.12009V14.3801C17.7595 14.1682 17.3138 14.0551 16.8604 14.0501C15.3342 14.0408 14.0838 15.2595 14.0539 16.7854C14.024 18.3112 15.2257 19.578 16.751 19.6285C18.2764 19.679 19.5592 18.4946 19.6304 16.9701C19.635 16.9235 19.635 16.8766 19.6304 16.8301L19.6404 7.12009ZM6.92037 19.9901C6.21613 19.9996 5.63439 19.4426 5.61343 18.7386C5.59247 18.0346 6.14003 17.4439 6.84359 17.4116C7.54715 17.3792 8.14662 17.9171 8.19037 18.6201V18.7901C8.15316 19.464 7.59532 19.9911 6.92037 19.9901ZM15.6415 17.3307C15.8443 17.8124 16.3177 18.1241 16.8404 18.1201C17.1816 18.1201 17.5087 17.9839 17.749 17.7417C17.9894 17.4994 18.123 17.1713 18.1204 16.8301C18.1204 16.3074 17.805 15.8364 17.3217 15.6374C16.8384 15.4383 16.2828 15.5505 15.9147 15.9215C15.5465 16.2925 15.4386 16.849 15.6415 17.3307Z" fill="#9AA0A6"/>
</g>
</svg>
