<svg width="28" height="30" viewBox="0 0 24 25" fill="none" xmlns="http://www.w3.org/2000/svg">
<g id="Music and sound Player/Play">
<path id="Icon" fill-rule="evenodd" clip-rule="evenodd" d="M10.1099 5.75007L17.3599 9.94007C18.2851 10.4768 18.8546 11.4655 18.8546 12.5351C18.8546 13.6047 18.2851 14.5934 17.3599 15.1301L10.1099 19.3201C9.18136 19.8561 8.03736 19.856 7.10903 19.3196C6.1807 18.7832 5.60918 17.7922 5.60986 16.7201V8.35007C5.60918 7.27793 6.1807 6.28692 7.10903 5.75055C8.03736 5.21418 9.18136 5.214 10.1099 5.75007ZM9.20987 17.7601L16.4599 13.5801C16.8329 13.3671 17.0622 12.9696 17.0599 12.5401C17.0637 12.1075 16.8345 11.7063 16.4599 11.4901L9.20987 7.31007C9.02854 7.20107 8.82142 7.14239 8.60987 7.14007C7.9416 7.14007 7.39987 7.6818 7.39987 8.35007V16.7201C7.39987 17.041 7.52735 17.3488 7.75427 17.5757C7.98119 17.8026 8.28896 17.9301 8.60987 17.9301C8.82142 17.9277 9.02854 17.8691 9.20987 17.7601Z" fill="white"/>
</g>
</svg>
