<svg width="25" height="25" viewBox="0 0 25 25" fill="none" xmlns="http://www.w3.org/2000/svg">
<g id="User/Person">
<g id="Icon">
<path fill-rule="evenodd" clip-rule="evenodd" d="M4.81981 17.4898L4.57981 18.6298C4.35237 19.6154 4.57693 20.6511 5.19215 21.454C5.80737 22.2568 6.74898 22.7431 7.75981 22.7798H17.0398C18.0506 22.7431 18.9922 22.2568 19.6075 21.454C20.2227 20.6511 20.4472 19.6154 20.2198 18.6298L19.9798 17.4898C19.7038 15.9466 18.3772 14.8125 16.8098 14.7798H7.98981C6.42243 14.8125 5.09584 15.9466 4.81981 17.4898ZM7.75981 21.2698C7.25202 21.2639 6.77414 21.0287 6.45981 20.6298V20.6398C6.07412 20.156 5.92385 19.5256 6.04981 18.9198L6.28981 17.7798C6.42297 16.935 7.13517 16.3024 7.98981 16.2698H16.8098C17.6644 16.3024 18.3766 16.935 18.5098 17.7798L18.7498 18.9198C18.8726 19.5224 18.7225 20.1485 18.3398 20.6298C18.0255 21.0287 17.5476 21.2639 17.0398 21.2698H7.75981Z" fill="currentColor"/>
<path fill-rule="evenodd" clip-rule="evenodd" d="M11.8998 12.7798H12.8998C15.109 12.7798 16.8998 10.9889 16.8998 8.7798V6.1398C16.9025 5.24786 16.5493 4.39168 15.9186 3.76098C15.2879 3.13028 14.4318 2.77713 13.5398 2.7798H11.2598C10.3679 2.77713 9.5117 3.13028 8.881 3.76098C8.2503 4.39168 7.89716 5.24786 7.89982 6.1398V8.7798C7.89982 10.9889 9.69068 12.7798 11.8998 12.7798ZM13.5398 4.2798C14.5671 4.2798 15.3998 5.11255 15.3998 6.1398V8.7798C15.3998 10.1605 14.2805 11.2798 12.8998 11.2798H11.8998C10.5191 11.2798 9.39982 10.1605 9.39982 8.7798V6.1398C9.39982 5.6465 9.59579 5.1734 9.9446 4.82458C10.2934 4.47576 10.7665 4.2798 11.2598 4.2798H13.5398Z" fill="currentColor"/>
</g>
</g>
</svg>
