<svg width="25" height="25" viewBox="0 0 25 25" fill="none" xmlns="http://www.w3.org/2000/svg">
<g id="Interface essential/Magnifier ">
<path id="Icon" fill-rule="evenodd" clip-rule="evenodd" d="M20.738 8.44911C19.3118 5.02448 15.9702 2.78982 12.2605 2.77991C8.26227 2.75886 4.70717 5.31984 3.46086 9.11888C2.21454 12.9179 3.56171 17.0871 6.79539 19.4386C10.0291 21.79 14.4106 21.7865 17.6405 19.4299L20.5205 22.3099C20.8133 22.6024 21.2876 22.6024 21.5805 22.3099C21.8729 22.0171 21.8729 21.5427 21.5805 21.2499L18.7905 18.4599C21.3966 15.8198 22.1642 11.8737 20.738 8.44911ZM19.4009 14.9489C18.2034 17.8345 15.3847 19.714 12.2605 19.7099V19.6699C8.02018 19.6645 4.57793 16.2401 4.55047 11.9999C4.54642 8.87565 6.42586 6.05696 9.31153 4.85948C12.1972 3.66201 15.5201 4.32187 17.7293 6.53106C19.9385 8.74025 20.5984 12.0632 19.4009 14.9489Z" fill="currentColor"/>
</g>
</svg>
