<svg width="25" height="25" viewBox="0 0 25 25" fill="none" xmlns="http://www.w3.org/2000/svg">
<g id="Interface essential/Setting">
<g id="Icon">
<path fill-rule="evenodd" clip-rule="evenodd" d="M4.97326 9.51056C4.78279 9.9747 4.33141 10.2783 3.82971 10.2798C3.14878 10.2853 2.59969 10.8388 2.59971 11.5198V13.6598C2.59971 14.3446 3.15487 14.8998 3.83971 14.8998C4.34141 14.9012 4.79279 15.2049 4.98326 15.669C5.17373 16.1331 5.06576 16.6663 4.70971 17.0198C4.23208 17.5092 4.23208 18.2903 4.70971 18.7798L6.20971 20.2798C6.69916 20.7574 7.48026 20.7574 7.96971 20.2798C8.19547 20.0406 8.51082 19.9065 8.83971 19.9098C9.17031 19.9071 9.48828 20.0366 9.72299 20.2694C9.9577 20.5023 10.0897 20.8192 10.0897 21.1498C10.0897 21.8346 10.6449 22.3898 11.3297 22.3898H13.4697C14.1545 22.3898 14.7097 21.8346 14.7097 21.1498C14.7097 20.8192 14.8417 20.5023 15.0764 20.2694C15.3111 20.0366 15.6291 19.9071 15.9597 19.9098C16.2886 19.9065 16.6039 20.0406 16.8297 20.2798C17.3192 20.7574 18.1003 20.7574 18.5897 20.2798L20.0897 18.7798C20.5673 18.2903 20.5673 17.5092 20.0897 17.0198C19.7337 16.6663 19.6257 16.1331 19.8162 15.669C20.0066 15.2049 20.458 14.9012 20.9597 14.8998C21.2886 14.8998 21.604 14.7691 21.8365 14.5366C22.0691 14.3041 22.1997 13.9887 22.1997 13.6598V11.5198C22.1997 10.835 21.6445 10.2798 20.9597 10.2798C20.458 10.2783 20.0066 9.9747 19.8162 9.51056C19.6257 9.04642 19.7337 8.51324 20.0897 8.15979C20.5673 7.67033 20.5673 6.88924 20.0897 6.39979L18.5897 4.89979C18.1003 4.42215 17.3192 4.42215 16.8297 4.89979C16.6039 5.13898 16.2886 5.27309 15.9597 5.26979C15.6274 5.27248 15.3079 5.14164 15.0729 4.90664C14.8378 4.67163 14.707 4.35212 14.7097 4.01979C14.7097 3.33495 14.1545 2.77979 13.4697 2.77979H11.3197C10.6349 2.77979 10.0797 3.33495 10.0797 4.01979C10.0824 4.35212 9.95157 4.67163 9.71656 4.90664C9.48156 5.14164 9.16205 5.27248 8.82971 5.26979C8.50082 5.27309 8.18547 5.13898 7.95971 4.89979C7.47026 4.42215 6.68916 4.42215 6.19971 4.89979L4.69971 6.39979C4.22208 6.88924 4.22208 7.67033 4.69971 8.15979C5.05576 8.51324 5.16373 9.04642 4.97326 9.51056ZM6.39971 15.0898C6.00935 14.138 5.11544 13.4879 4.08971 13.4098L4.11971 11.7698C5.1343 11.6808 6.01418 11.0325 6.39971 10.0898C6.77735 9.14486 6.60441 8.0688 5.94971 7.28979L7.09971 6.13979C7.58739 6.5482 8.2036 6.77131 8.83971 6.76979C10.2569 6.76631 11.4411 5.69014 11.5797 4.27979H13.2197C13.3539 5.69238 14.5408 6.77098 15.9597 6.76979C16.5958 6.77131 17.212 6.5482 17.6997 6.13979L18.8197 7.28979C18.1752 8.07474 18.0139 9.15027 18.3997 10.0898C18.7852 11.0325 19.6651 11.6808 20.6797 11.7698V13.4098C19.6651 13.4988 18.7852 14.1471 18.3997 15.0898C18.0221 16.0347 18.195 17.1108 18.8497 17.8898L17.6997 19.0398C17.212 18.6314 16.5958 18.4083 15.9597 18.4098C14.5426 18.4133 13.3583 19.4894 13.2197 20.8998H11.5797C11.4547 19.4826 10.2623 18.3991 8.83971 18.4098C8.2036 18.4083 7.58739 18.6314 7.09971 19.0398L5.97971 17.8898C6.62424 17.1048 6.78556 16.0293 6.39971 15.0898Z" fill="#9AA0A6"/>
<path fill-rule="evenodd" clip-rule="evenodd" d="M15.8597 12.5898C15.8597 10.6789 14.3106 9.12979 12.3997 9.12979C11.4821 9.12979 10.602 9.49432 9.95312 10.1432C9.30424 10.7921 8.93971 11.6721 8.93971 12.5898C8.93971 14.5007 10.4888 16.0498 12.3997 16.0498C14.3106 16.0498 15.8597 14.5007 15.8597 12.5898ZM14.3997 12.5898C14.3997 13.6944 13.5043 14.5898 12.3997 14.5898C11.2951 14.5898 10.3997 13.6944 10.3997 12.5898C10.3997 11.4852 11.2951 10.5898 12.3997 10.5898C13.5043 10.5898 14.3997 11.4852 14.3997 12.5898Z" fill="#9AA0A6"/>
</g>
</g>
</svg>
