<svg width="25" height="25" viewBox="0 0 25 25" fill="none" xmlns="http://www.w3.org/2000/svg">
<g id="Interface essential/Star">
<path id="Icon" fill-rule="evenodd" clip-rule="evenodd" d="M14.4752 5.32997C14.1872 4.39835 13.3203 3.76749 12.3452 3.77997C11.3647 3.77012 10.496 4.41042 10.2152 5.34997L9.55522 7.34997C9.25886 8.27559 8.39713 8.90267 7.42522 8.89997H5.34522C4.35045 8.86227 3.45015 9.48561 3.13535 10.43C2.82055 11.3744 3.16678 12.4133 3.98522 12.98L5.69522 14.23C6.4834 14.7961 6.81497 15.807 6.51522 16.73L5.85522 18.73C5.62843 19.4223 5.75092 20.1816 6.18391 20.7676C6.6169 21.3535 7.30679 21.6935 8.03522 21.68C8.50758 21.6764 8.96649 21.5223 9.34522 21.24L10.9852 19.99C11.7717 19.4163 12.8387 19.4163 13.6252 19.99L15.3452 21.24C15.7285 21.5484 16.2034 21.7207 16.6952 21.73C17.4289 21.7361 18.1195 21.384 18.5457 20.7867C18.9718 20.1893 19.0798 19.4217 18.8352 18.73L18.1752 16.73C17.8572 15.8098 18.173 14.7896 18.9552 14.21L20.6652 12.96C21.4579 12.3913 21.7913 11.3751 21.4897 10.4473C21.1881 9.51961 20.3207 8.89377 19.3452 8.89997H17.2652C16.2879 8.89993 15.4245 8.26351 15.1352 7.32997L14.4752 5.32997ZM11.8152 5.84997C11.8767 5.6105 12.0983 5.44744 12.3452 5.45997C12.6044 5.45109 12.8305 5.63453 12.8752 5.88997L13.5352 7.88997C14.0597 9.50628 15.5659 10.6006 17.2652 10.6H19.3852C19.6209 10.6068 19.827 10.7604 19.9009 10.9842C19.9748 11.2081 19.9005 11.4543 19.7152 11.6L18.0052 12.85C16.6259 13.8476 16.0481 15.6214 16.5752 17.24L17.2352 19.24C17.3 19.4042 17.2734 19.5905 17.1652 19.73C17.053 19.8915 16.8718 19.9914 16.6752 20C16.5552 19.9964 16.4395 19.9543 16.3452 19.88L14.6552 18.63C13.2778 17.6292 11.4126 17.6292 10.0352 18.63L8.36522 19.82C8.27093 19.8943 8.15524 19.9364 8.03522 19.94C7.84761 19.9278 7.67524 19.8324 7.56522 19.68C7.45701 19.5405 7.4304 19.3542 7.49522 19.19L8.15522 17.19C8.68229 15.5714 8.1045 13.7976 6.72522 12.8L5.01522 11.56C4.8299 11.4143 4.75567 11.1681 4.82954 10.9442C4.90342 10.7204 5.10958 10.5668 5.34522 10.56H7.42522C9.12451 10.5606 10.6307 9.46628 11.1552 7.84997L11.8152 5.84997Z" fill="currentColor"/>
</g>
</svg>
