<?xml version="1.0" encoding="utf-8"?>
<!-- Generator: Adobe Illustrator 27.0.1, SVG Export Plug-In . SVG Version: 6.00 Build 0)  -->
<svg version="1.1" id="a" xmlns="http://www.w3.org/2000/svg" xmlns:xlink="http://www.w3.org/1999/xlink" x="0px" y="0px"
	 viewBox="0 0 697 144" style="enable-background:new 0 0 697 144;" xml:space="preserve">
<style type="text/css">
	.st0{fill:#FFFFFF;}
	.st1{fill:url(#SVGID_1_);}
	.st2{fill:url(#SVGID_00000007386581274521045450000017459907626075329726_);}
</style>
<g>
	<path class="st0" d="M252.4,54.9l-13.5,46.3h-12.6l-8.4-32.3l-8.4,32.3h-12.7l-13.6-46.3H195l8.2,35.2l8.9-35.2h12.4l8.7,35.2
		l8.2-35.2L252.4,54.9L252.4,54.9z"/>
	<path class="st0" d="M255.2,65.4c1.9-3.6,4.4-6.4,7.6-8.3c3.2-2,6.8-2.9,10.7-2.9c3.5,0,6.5,0.7,9.1,2.1s4.7,3.2,6.2,5.3v-6.6h11.8
		v46.3h-11.8v-6.8c-1.5,2.2-3.6,4-6.2,5.4c-2.6,1.4-5.7,2.1-9.1,2.1c-3.9,0-7.5-1-10.6-3c-3.2-2-5.7-4.8-7.6-8.5
		c-1.9-3.7-2.8-7.8-2.8-12.6S253.4,69,255.2,65.4L255.2,65.4z M287.2,70.7c-1.1-2-2.6-3.6-4.5-4.7c-1.9-1.1-3.9-1.6-6.1-1.6
		s-4.2,0.5-6,1.6c-1.8,1.1-3.3,2.6-4.5,4.6c-1.1,2-1.7,4.4-1.7,7.2s0.6,5.2,1.7,7.3c1.1,2.1,2.6,3.7,4.5,4.8c1.9,1.1,3.9,1.7,6,1.7
		s4.2-0.5,6.1-1.6c1.9-1.1,3.4-2.6,4.5-4.7c1.1-2,1.7-4.5,1.7-7.3S288.3,72.7,287.2,70.7L287.2,70.7z"/>
	<path class="st0" d="M328,90.4l11.7-35.5h12.5l-17.1,46.3h-14.2l-17-46.3h12.5L328,90.4z"/>
	<path class="st0" d="M398.1,81.5h-33.8c0.3,3.3,1.5,6,3.5,7.8s4.6,2.8,7.6,2.8c4.3,0,7.4-1.9,9.3-5.6h12.6c-1.3,4.5-3.9,8.1-7.7,11
		c-3.8,2.9-8.4,4.3-14,4.3c-4.5,0-8.5-1-12-3c-3.5-2-6.3-4.8-8.3-8.4c-2-3.6-3-7.8-3-12.5s1-9,2.9-12.6c2-3.6,4.7-6.4,8.2-8.3
		c3.5-2,7.5-2.9,12.1-2.9s8.3,1,11.8,2.8s6.2,4.6,8.1,8.1s2.9,7.5,2.9,12C398.4,78.7,398.3,80.2,398.1,81.5L398.1,81.5z M386.3,73.7
		c-0.1-3-1.1-5.4-3.3-7.2s-4.7-2.7-7.8-2.7c-2.9,0-5.3,0.9-7.3,2.6s-3.2,4.2-3.6,7.3L386.3,73.7L386.3,73.7z"/>
	<path class="st0" d="M412.8,99.6c-3.3-1.4-5.8-3.4-7.7-6c-1.9-2.6-2.9-5.7-2.9-9.3h12.5c0.2,2.4,1,4.3,2.5,5.7s3.6,2.1,6.3,2.1
		s4.9-0.7,6.4-2s2.3-3,2.3-5.1c0-1.7-0.5-3.1-1.6-4.3c-1.1-1.1-2.4-2-4-2.6s-3.8-1.3-6.6-2.1c-3.8-1.1-6.9-2.2-9.2-3.3
		c-2.4-1.1-4.4-2.7-6.1-4.9s-2.5-5.1-2.5-8.8c0-3.5,0.9-6.5,2.6-9s4.1-4.5,7.3-5.9c3.1-1.4,6.7-2,10.7-2c6,0,10.9,1.5,14.7,4.4
		c3.8,2.9,5.8,7,6.2,12.2h-12.9c-0.1-2-1-3.7-2.5-5s-3.7-2-6.3-2c-2.3,0-4.1,0.6-5.5,1.8c-1.4,1.2-2,2.9-2,5.1
		c0,1.6,0.5,2.8,1.5,3.9c1,1,2.3,1.9,3.8,2.5s3.7,1.4,6.5,2.2c3.8,1.1,6.9,2.2,9.3,3.3c2.4,1.1,4.5,2.8,6.2,5
		c1.7,2.2,2.6,5.2,2.6,8.8c0,3.1-0.8,6-2.4,8.7c-1.6,2.7-4,4.8-7.1,6.4s-6.8,2.4-11.1,2.4C419.7,101.7,416,101,412.8,99.6
		L412.8,99.6z"/>
	<path class="st0" d="M459.7,98.9c-3.6-2-6.4-4.8-8.4-8.4c-2-3.6-3-7.8-3-12.5s1-8.9,3.1-12.5c2.1-3.6,4.9-6.4,8.6-8.4
		c3.6-2,7.7-3,12.1-3s8.5,1,12.1,3c3.6,2,6.5,4.8,8.6,8.4c2.1,3.6,3.1,7.8,3.1,12.5s-1.1,8.9-3.2,12.5c-2.1,3.6-5,6.4-8.7,8.4
		c-3.6,2-7.7,3-12.2,3S463.2,100.9,459.7,98.9L459.7,98.9z M477.7,90.1c1.9-1,3.4-2.6,4.5-4.6c1.1-2.1,1.7-4.6,1.7-7.5
		c0-4.4-1.2-7.8-3.5-10.2s-5.1-3.6-8.5-3.6s-6.1,1.2-8.4,3.6s-3.4,5.8-3.4,10.2s1.1,7.8,3.3,10.2c2.2,2.4,5,3.6,8.3,3.6
		C473.8,91.7,475.8,91.2,477.7,90.1L477.7,90.1z"/>
	<path class="st0" d="M544.8,54.9v46.3H533v-5.8c-1.5,2-3.5,3.6-5.9,4.7c-2.4,1.1-5,1.7-7.9,1.7c-3.6,0-6.8-0.8-9.6-2.3
		c-2.8-1.5-5-3.8-6.6-6.8c-1.6-3-2.4-6.5-2.4-10.7V54.9h11.7v25.5c0,3.7,0.9,6.5,2.8,8.5c1.8,2,4.3,3,7.5,3s5.8-1,7.6-3
		c1.8-2,2.8-4.8,2.8-8.5V54.9L544.8,54.9L544.8,54.9z"/>
	<path class="st0" d="M592,59.4c3.4,3.5,5.1,8.3,5.1,14.6v27.1h-11.7V75.6c0-3.7-0.9-6.5-2.8-8.5s-4.3-3-7.5-3s-5.8,1-7.6,3
		c-1.9,2-2.8,4.8-2.8,8.5v25.6H553V54.9h11.7v5.8c1.6-2,3.5-3.6,6-4.7s5.1-1.7,8-1.7C584.1,54.2,588.6,55.9,592,59.4L592,59.4z"/>
	<path class="st0" d="M604.6,65.4c1.9-3.6,4.4-6.4,7.6-8.3c3.2-2,6.8-2.9,10.8-2.9c3,0,5.9,0.7,8.6,2c2.7,1.3,4.9,3,6.5,5.2v-22H650
		v61.8h-11.9v-6.8c-1.5,2.3-3.5,4.1-6.1,5.5s-5.7,2.1-9.1,2.1c-3.9,0-7.5-1-10.7-3s-5.8-4.8-7.6-8.5c-1.9-3.7-2.8-7.8-2.8-12.6
		S602.8,69,604.6,65.4L604.6,65.4z M636.6,70.7c-1.1-2-2.6-3.6-4.5-4.7c-1.9-1.1-3.9-1.6-6.1-1.6s-4.2,0.5-6,1.6
		c-1.8,1.1-3.3,2.6-4.5,4.6c-1.1,2-1.7,4.4-1.7,7.2s0.6,5.2,1.7,7.3s2.6,3.7,4.5,4.8c1.9,1.1,3.8,1.7,6,1.7s4.2-0.5,6.1-1.6
		c1.9-1.1,3.4-2.6,4.5-4.7c1.1-2,1.7-4.5,1.7-7.3S637.7,72.7,636.6,70.7L636.6,70.7z"/>
	<path class="st0" d="M665.6,99.8c-3-1.4-5.4-3.2-7.1-5.6s-2.7-4.9-2.9-7.8h11.8c0.2,1.8,1.1,3.3,2.6,4.4s3.4,1.8,5.7,1.8
		s4-0.4,5.2-1.3s1.9-2,1.9-3.4c0-1.5-0.8-2.6-2.3-3.4c-1.5-0.8-4-1.6-7.3-2.5c-3.5-0.8-6.3-1.7-8.5-2.6c-2.2-0.9-4.1-2.2-5.7-4.1
		c-1.6-1.8-2.4-4.3-2.4-7.4c0-2.6,0.7-4.9,2.2-7c1.5-2.1,3.6-3.8,6.3-5c2.8-1.2,6-1.8,9.7-1.8c5.5,0,9.9,1.4,13.2,4.1
		c3.3,2.8,5.1,6.5,5.4,11.2h-11.2c-0.2-1.8-0.9-3.3-2.3-4.4c-1.4-1.1-3.2-1.6-5.5-1.6c-2.1,0-3.8,0.4-4.9,1.2
		c-1.1,0.8-1.7,1.9-1.7,3.3c0,1.6,0.8,2.7,2.3,3.6c1.6,0.8,4,1.6,7.3,2.5c3.3,0.8,6.1,1.7,8.3,2.6c2.2,0.9,4,2.3,5.6,4.1
		c1.6,1.9,2.4,4.3,2.5,7.4c0,2.7-0.7,5.1-2.2,7.2c-1.5,2.1-3.6,3.8-6.3,5c-2.8,1.2-6,1.8-9.7,1.8S668.7,101.2,665.6,99.8L665.6,99.8
		z"/>
</g>
<g>
	<linearGradient id="SVGID_1_" gradientUnits="userSpaceOnUse" x1="20.31" y1="45.365" x2="150.6801" y2="45.365">
		<stop  offset="0" style="stop-color:#9BD40F"/>
		<stop  offset="1" style="stop-color:#6BBB00"/>
	</linearGradient>
	<path class="st1" d="M26,71.9c0.2-0.9,0.4-1.8,0.7-2.6c0.1-0.5,0.3-1.2,0.5-2c1.8-7.1,5.2-20.3,12.3-23.3c1.7-0.7,4.4-1.2,7.7,0.7
		c2.5,1.4,4,3.9,4.5,7.2c0.4,2.6,0.2,5.3-0.1,7.7c-0.1,0.7-0.1,1.3-0.2,1.9c-0.2,3.7-0.4,8,0.1,12.3c0,0.2,0,0.3,0.1,0.5
		c0.3,2.6,1,8.6,3.5,9.3c0.4,0.1,0.7,0.1,1-0.2c0.9-0.5,1.7-1.9,1.9-3.2c0.2-1.4,0.4-2.9,0.5-4.5c0.2-2.7,0.5-5.5,1.3-8.2
		c0.4-1.5,2.1-6.3,6-8c1.5-0.6,3.1-0.6,4.5,0.1c2.9,1.5,4.3,5.3,4.8,7.5c1.4,5.6,3,10.9,6.8,14.1c1.7,1.5,4.5,2.5,6.5,0.6
		c1.3-1.2,2-3.1,2.8-5c0.8-2,2.1-4.2,3.4-6c2-2.5,4.1-3.9,6.2-3.9c1.8-0.1,4.2,0.7,6.2,4.6c0.5,1.1,1,2.1,1.4,3.2
		c0.9,2.2,1.7,4.3,3.2,5.9c1.4,1.5,3.5,2.5,5.4,2.5c0,0,0,0,0.1,0c1.2,0,2.3-0.5,3-1.3c0.5-0.6,0.9-1.4,1.3-2.2
		c0.7-1.4,1.4-2.9,2.8-4.1c2-1.6,4.4-2,7.2-1.1c2.1,0.6,4.1,1.9,5.7,2.9c0.6,0.4,1.1,0.7,1.6,1c3.2,1.8,6.8,3,11.3,3.9
		c0.5-3.4,0.8-6.8,0.8-10.3c0-36-29.2-65.2-65.2-65.2S20.3,36,20.3,72c0,4.1,0.4,8.1,1.1,11.9C23.7,80.6,24.9,75.9,26,71.9z"/>
	
		<linearGradient id="SVGID_00000072965230455412728260000002473156669402804101_" gradientUnits="userSpaceOnUse" x1="2.94" y1="92.5223" x2="173.71" y2="92.5223">
		<stop  offset="0" style="stop-color:#9BD40F"/>
		<stop  offset="1" style="stop-color:#6BBB00"/>
	</linearGradient>
	<path style="fill:url(#SVGID_00000072965230455412728260000002473156669402804101_);" d="M172.4,89.3c-3.2-0.4-6.5-0.7-9.6-0.9
		c-2.3-0.2-4.8-0.4-7.2-0.6c-5.6-0.6-12.8-1.8-19.2-5.4c-0.6-0.3-1.1-0.7-1.8-1.1c-3.2-2-6-3.5-7.7-2.2c-0.7,0.5-1.1,1.4-1.6,2.5
		c-0.5,1-1,2.2-1.9,3.2c-1.6,1.9-3.8,2.9-6.4,2.9c-3.2,0-6.7-1.5-8.9-4c-2-2.2-3-4.8-4-7.2c-0.4-1-0.8-2-1.2-2.9
		c-0.6-1.3-1.4-2.1-1.9-2.1c-1.5,0.1-4.3,3.5-5.7,7c-0.9,2.3-1.9,4.8-3.9,6.7c-1.8,1.7-4.1,2.5-6.5,2.2c-2.1-0.2-4.2-1.2-5.9-2.6
		c-4.9-4.1-6.7-10.1-8.3-16.5c-0.6-2.3-1.6-4.2-2.5-4.6c-0.1-0.1-0.3-0.2-0.8,0c-1.5,0.7-2.8,3.1-3.4,5.1c-0.7,2.3-0.9,4.8-1.1,7.4
		c-0.2,1.6-0.3,3.2-0.6,4.8c-0.3,2-1.5,4.8-3.9,6.3c-1.5,0.9-3.1,1.2-4.7,0.7c-5.3-1.6-6.2-9.1-6.7-13.1c0-0.2,0-0.3-0.1-0.5
		c-0.6-4.7-0.4-9.2-0.2-13.1c0-0.6,0.1-1.3,0.2-2c0.3-4,0.8-8.9-2.2-10.6c-1.8-1.1-3-0.8-3.7-0.5c-1.4,0.6-3.6,2.5-6,8.3
		c-1.7,4.2-2.9,8.9-3.7,12c-0.2,0.8-0.4,1.5-0.6,2.1c-0.2,0.8-0.4,1.6-0.7,2.5c-0.9,3.4-1.9,7.2-3.5,10.6c-2.1,4.2-4.8,6.9-8.3,8.3
		c-1.4,0.5-2.9,0.8-4.3,0.8c-1.6,0-3.2-0.3-4.9-1C7.4,91,5.6,89.9,4,88.7c-0.6-0.5-0.9-1.2-0.9-1.9c-0.1,0-0.1,0-0.1,0
		c0.5,3.5,3.5,6.2,6.7,7.7c3.2,1.4,7,1.9,10.4,1c1.4-0.4,2.7-1,3.9-1.7c8.9,25.3,33.1,43.5,61.5,43.5c28.4,0,54.5-19.7,62.5-46.6
		c8.6-0.2,17.1-0.5,25.7-1c0-0.1,0-0.3,0.1-0.4C173.3,89.3,172.9,89.4,172.4,89.3z"/>
</g>
</svg>
