<?xml version="1.0" encoding="utf-8"?>
<!-- Generator: Adobe Illustrator 27.0.1, SVG Export Plug-In . SVG Version: 6.00 Build 0)  -->
<svg version="1.1" id="a" xmlns="http://www.w3.org/2000/svg" xmlns:xlink="http://www.w3.org/1999/xlink" x="0px" y="0px"
	 viewBox="0 0 172 140" style="enable-background:new 0 0 172 140;" xml:space="preserve">
<style type="text/css">
	.st0{fill:#FFFFFF;}
	.st1{fill:url(#SVGID_1_);}
	.st2{fill:url(#SVGID_00000076604285069213145030000015193789948159856516_);}
</style>
<circle class="st0" cx="83.1" cy="70.2" r="64.5"/>
<g>
	<linearGradient id="SVGID_1_" gradientUnits="userSpaceOnUse" x1="18.21" y1="43.47" x2="148.13" y2="43.47">
		<stop  offset="0" style="stop-color:#9BD40F"/>
		<stop  offset="1" style="stop-color:#6BBB00"/>
	</linearGradient>
	<path class="st1" d="M23.8,69.9c0.2-0.9,0.4-1.8,0.7-2.6c0.1-0.5,0.3-1.2,0.5-2C26.8,58.2,30.2,45,37.3,42c1.7-0.7,4.4-1.2,7.7,0.7
		c2.5,1.4,4,3.8,4.5,7.2c0.4,2.6,0.2,5.3-0.1,7.7c-0.1,0.7-0.1,1.3-0.1,1.9c-0.2,3.6-0.4,7.9,0.1,12.2c0,0.2,0,0.3,0.1,0.5
		c0.3,2.5,1,8.5,3.4,9.2c0.4,0.1,0.7,0.1,1-0.2c0.8-0.5,1.7-1.9,1.9-3.2c0.2-1.4,0.4-2.9,0.5-4.5c0.2-2.7,0.5-5.4,1.3-8.1
		c0.4-1.4,2.1-6.3,5.9-7.9C65,57,66.6,57,68,57.7c2.9,1.4,4.2,5.3,4.8,7.5c1.4,5.6,3,10.8,6.8,14.1c1.7,1.5,4.4,2.5,6.4,0.6
		c1.3-1.2,2-3.1,2.8-5c0.8-2,2.1-4.2,3.4-5.9c2-2.5,4.1-3.8,6.2-3.9c1.7-0.1,4.2,0.7,6.1,4.6c0.5,1.1,1,2.1,1.4,3.2
		c0.9,2.2,1.7,4.2,3.2,5.9c1.3,1.5,3.5,2.5,5.4,2.5c0,0,0,0,0.1,0c1.2,0,2.2-0.5,3-1.3c0.5-0.6,0.9-1.4,1.3-2.2
		c0.7-1.4,1.4-2.9,2.8-4c2-1.6,4.4-1.9,7.2-1c2.1,0.7,4,1.9,5.6,2.9c0.6,0.4,1.1,0.7,1.6,1c3.1,1.8,6.8,3,11.3,3.9
		c0.5-3.3,0.8-6.8,0.8-10.3c0-35.9-29.1-65-65-65s-65,29.1-65,65c0,4.1,0.4,8,1.1,11.9C21.6,78.6,22.8,73.9,23.8,69.9z"/>
	
		<linearGradient id="SVGID_00000155107576165515720360000013241654694874474665_" gradientUnits="userSpaceOnUse" x1="0.93" y1="90.4031" x2="171.08" y2="90.4031">
		<stop  offset="0" style="stop-color:#9BD40F"/>
		<stop  offset="1" style="stop-color:#6BBB00"/>
	</linearGradient>
	<path style="fill:url(#SVGID_00000155107576165515720360000013241654694874474665_);" d="M169.8,87.2L169.8,87.2
		c-3.2-0.4-6.4-0.7-9.6-0.9c-2.4-0.2-4.8-0.4-7.2-0.6c-5.5-0.6-12.8-1.8-19.2-5.4c-0.6-0.3-1.1-0.7-1.8-1.1c-3.2-2-6-3.5-7.6-2.2
		c-0.7,0.5-1.1,1.5-1.6,2.5c-0.5,1-1,2.1-1.9,3.1c-1.6,1.9-3.8,2.9-6.3,2.9c-3.2,0.1-6.7-1.5-8.9-3.9c-2-2.2-3-4.8-4-7.2
		c-0.4-1-0.8-2-1.2-2.9c-0.6-1.3-1.3-2.1-1.9-2.1c-1.5,0.1-4.3,3.5-5.6,7c-0.9,2.3-1.9,4.8-3.9,6.6c-1.8,1.7-4,2.5-6.5,2.2
		c-2-0.2-4.1-1.2-5.9-2.6c-4.9-4.1-6.7-10.1-8.3-16.4c-0.6-2.3-1.6-4.1-2.4-4.6c-0.1-0.1-0.3-0.1-0.8,0c-1.5,0.6-2.8,3.1-3.4,5
		c-0.7,2.3-0.9,4.8-1.1,7.3c-0.2,1.6-0.3,3.2-0.6,4.8c-0.3,2-1.5,4.8-3.9,6.3c-1.4,0.9-3.1,1.2-4.7,0.7c-5.3-1.5-6.2-9-6.6-13
		c0-0.2,0-0.3-0.1-0.5c-0.6-4.6-0.4-9.2-0.1-13c0-0.6,0.1-1.3,0.2-2c0.4-4,0.8-8.9-2.2-10.6c-1.8-1-3-0.8-3.7-0.5
		c-1.4,0.6-3.6,2.5-5.9,8.2c-1.7,4.2-2.9,8.9-3.7,12c-0.2,0.8-0.4,1.5-0.5,2.1c-0.2,0.8-0.4,1.6-0.7,2.5c-0.9,3.4-1.8,7.2-3.5,10.6
		c-2.1,4.2-4.8,6.9-8.3,8.2c-1.4,0.5-2.8,0.8-4.3,0.8c-1.6,0-3.2-0.3-4.8-1c-1.9-0.8-3.6-1.9-5.2-3.1c-0.6-0.5-0.9-1.2-0.9-1.9
		c0,0-0.1,0-0.1,0c0.5,3.5,3.5,6.2,6.7,7.6c3.2,1.4,6.9,1.9,10.3,1c1.4-0.4,2.7-0.9,3.9-1.7c8.9,25.2,33,43.3,61.3,43.3
		s54.3-19.6,62.3-46.5c8.5-0.2,17.1-0.6,25.6-1c0-0.1,0-0.3,0.1-0.4C170.7,87.2,170.2,87.3,169.8,87.2z"/>
</g>
</svg>
